<svg version="1.1" viewBox="0.0 0.0 960.0 720.0" fill="none" stroke="none" stroke-linecap="square" stroke-miterlimit="10" xmlns:xlink="http://www.w3.org/1999/xlink" xmlns="http://www.w3.org/2000/svg"><clipPath id="p.0"><path d="m0 0l960.0 0l0 720.0l-960.0 0l0 -720.0z" clip-rule="nonzero"/></clipPath><g clip-path="url(#p.0)"><path fill="#000000" fill-opacity="0.0" d="m0 0l960.0 0l0 720.0l-960.0 0z" fill-rule="evenodd"/><path fill="#ff9900" d="m443.96152 398.7871c-19.862732 -9.180481 -33.683105 -25.70514 -40.483368 -44.716522c-30.432312 9.993408 -57.499756 27.145142 -78.718475 48.155c3.7348022 7.692871 8.006897 15.013916 12.816315 21.963104c35.88556 51.851532 95.43848 77.04562 153.99557 72.095856c-13.256836 -27.192383 -20.770721 -57.568726 -20.894531 -89.89728c-8.702576 -1.0924377 -18.14505 -3.2539673 -26.715515 -7.6001587z" fill-rule="evenodd"/><path stroke="#ffffff" stroke-width="1.3333333333333333" stroke-miterlimit="8.0" stroke-linecap="butt" d="m443.96152 398.7871c-19.862732 -9.180481 -33.683105 -25.70514 -40.483368 -44.716522c-30.432312 9.993408 -57.499756 27.145142 -78.718475 48.155c3.7348022 7.692871 8.006897 15.013916 12.816315 21.963104c35.88556 51.851532 95.43848 77.04562 153.99557 72.095856c-13.256836 -27.192383 -20.770721 -57.568726 -20.894531 -89.89728c-8.702576 -1.0924377 -18.14505 -3.2539673 -26.715515 -7.6001587z" fill-rule="evenodd"/><path fill="#1155cc" d="m511.86197 256.2478c3.4623108 1.5570984 7.294586 3.6487732 10.589386 6.1124268c18.433289 -26.198532 30.849426 -55.348587 34.931152 -85.05577c-53.819427 -28.376953 -121.66733 -26.487946 -175.9505 11.080536c-4.8371277 3.3476868 -9.674225 6.6953735 -14.141357 10.577652c26.825958 14.641754 51.20218 34.932205 69.701416 61.661987c22.238281 -13.809402 49.89386 -16.345596 74.8699 -4.376831z" fill-rule="evenodd"/><path stroke="#ffffff" stroke-width="1.3333333333333333" stroke-miterlimit="8.0" stroke-linecap="butt" d="m511.86197 256.2478c3.4623108 1.5570984 7.294586 3.6487732 10.589386 6.1124268c18.433289 -26.198532 30.849426 -55.348587 34.931152 -85.05577c-53.819427 -28.376953 -121.66733 -26.487946 -175.9505 11.080536c-4.8371277 3.3476868 -9.674225 6.6953735 -14.141357 10.577652c26.825958 14.641754 51.20218 34.932205 69.701416 61.661987c22.238281 -13.809402 49.89386 -16.345596 74.8699 -4.376831z" fill-rule="evenodd"/><path fill="#ff0000" d="m550.65533 358.19696c-0.16595459 0.90753174 -0.8687744 2.1866455 -1.5716553 3.4657593c-12.943848 27.190155 -40.364044 43.789154 -69.13135 44.67389c0.17565918 32.378845 7.740814 62.8143 21.582672 89.69849c25.096954 -3.8933716 50.28177 -13.396423 72.83096 -29.00235c35.971313 -24.895172 59.447937 -60.960236 69.10217 -100.934875c-30.338928 4.3504944 -61.868713 2.3909302 -92.812805 -7.9009094z" fill-rule="evenodd"/><path stroke="#ffffff" stroke-width="1.3333333333333333" stroke-miterlimit="8.0" stroke-linecap="butt" d="m550.65533 358.19696c-0.16595459 0.90753174 -0.8687744 2.1866455 -1.5716553 3.4657593c-12.943848 27.190155 -40.364044 43.789154 -69.13135 44.67389c0.17565918 32.378845 7.740814 62.8143 21.582672 89.69849c25.096954 -3.8933716 50.28177 -13.396423 72.83096 -29.00235c35.971313 -24.895172 59.447937 -60.960236 69.10217 -100.934875c-30.338928 4.3504944 -61.868713 2.3909302 -92.812805 -7.9009094z" fill-rule="evenodd"/><path fill="#6aa84f" d="m354.3903 200.48538c-6.6822815 -3.6508636 -13.926514 -6.9128113 -21.345428 -9.226303c-56.067047 59.49196 -70.97763 148.42918 -35.18445 222.9641c5.0197144 -5.956726 10.039398 -11.913452 16.008331 -17.699554c-27.911285 -66.74893 -12.462036 -145.30072 40.521545 -196.03824z" fill-rule="evenodd"/><path stroke="#ffffff" stroke-width="1.0" stroke-miterlimit="8.0" stroke-linecap="butt" d="m354.3903 200.48538c-6.6822815 -3.6508636 -13.926514 -6.9128113 -21.345428 -9.226303c-56.067047 59.49196 -70.97763 148.42918 -35.18445 222.9641c5.0197144 -5.956726 10.039398 -11.913452 16.008331 -17.699554c-27.911285 -66.74893 -12.462036 -145.30072 40.521545 -196.03824z" fill-rule="evenodd"/><path fill="#6aa84f" d="m400.77124 345.84454c-3.8984375 -17.097534 -2.0228271 -35.023895 5.6654053 -51.43033c5.4149475 -11.6658325 13.38501 -21.932709 22.671234 -29.151367c-18.692505 -25.862564 -42.711273 -45.663452 -69.70572 -59.44577c-50.568512 48.45862 -65.24979 123.5488 -38.517273 187.39725c21.714111 -21.362549 49.113525 -37.949768 79.88635 -47.36978z" fill-rule="evenodd"/><path stroke="#ffffff" stroke-width="1.3333333333333333" stroke-miterlimit="8.0" stroke-linecap="butt" d="m400.77124 345.84454c-3.8984375 -17.097534 -2.0228271 -35.023895 5.6654053 -51.43033c5.4149475 -11.6658325 13.38501 -21.932709 22.671234 -29.151367c-18.692505 -25.862564 -42.711273 -45.663452 -69.70572 -59.44577c-50.568512 48.45862 -65.24979 123.5488 -38.517273 187.39725c21.714111 -21.362549 49.113525 -37.949768 79.88635 -47.36978z" fill-rule="evenodd"/><path fill="#000000" fill-opacity="0.0" d="m333.5134 394.00885l136.94489 -0.09448242l0 59.055115l-136.94489 0.09448242z" fill-rule="evenodd"/><path fill="#ffffff" d="m379.58575 416.11588q-0.125 1.671936 -1.25 2.6414795q-1.1093445 0.96951294 -2.9374695 0.97076416q-2.015625 0.0014038086 -3.171875 -1.3415527q-1.140625 -1.3585815 -1.140625 -3.7023315l0 -0.640625q0 -1.5 0.53125 -2.6409912q0.53125 -1.1566162 1.515625 -1.7666931q0.984375 -0.6100464 2.28125 -0.6109314q1.8125 -0.0012512207 2.9062195 0.96673584q1.109375 0.96798706 1.28125 2.70224l-2.1405945 0.0014953613q-0.078125 -0.9999695 -0.5625 -1.4527588q-0.484375 -0.4527893 -1.484375 -0.4520874q-1.0625 7.324219E-4 -1.59375 0.76672363q-0.53125 0.7659912 -0.546875 2.3909912l0 0.78125q0 1.6875 0.5 2.4684143q0.515625 0.7808838 1.625 0.78012085q0.984375 -6.713867E-4 1.46875 -0.45413208q0.5 -0.4534607 0.578125 -1.4066467l2.1405945 -0.0014648438zm5.6207886 -2.3320312q-0.421875 -0.062194824 -0.734375 -0.0619812q-1.171875 8.239746E-4 -1.546875 0.7979431l0 5.0625l-2.0625 0.0014343262l0 -7.75l1.953125 -0.001373291l0.0625 0.9374695q0.609375 -1.0785522 1.71875 -1.0793152q0.34375 -2.4414062E-4 0.640625 0.093322754l-0.03125 2.0zm4.4284973 5.9344482q-1.703125 0.0011901855 -2.78125 -1.0449524q-1.0625 -1.0461426 -1.0625 -2.7805176l0 -0.203125q0 -1.15625 0.453125 -2.0784302q0.453125 -0.9221802 1.265625 -1.42276q0.828125 -0.5005493 1.890625 -0.50128174q1.59375 -0.0010986328 2.5 1.0138855q0.921875 0.99935913 0.921875 2.8274841l0 0.84375l-4.9375 0.0034179688q0.109375 0.76553345 0.609375 1.2183228q0.5 0.4527893 1.28125 0.45224q1.1875 -8.239746E-4 1.859375 -0.86065674l1.015625 1.1399231q-0.46875 0.6565857 -1.265625 1.032135q-0.78125 0.3598938 -1.75 0.3605652zm-0.234375 -6.359192q-0.625 4.272461E-4 -1.015625 0.4225769q-0.375 0.42211914 -0.46875 1.1878052l2.875 -0.0019836426l0 -0.15625q-0.015625 -0.6874695 -0.375 -1.0622253q-0.359375 -0.39038086 -1.015625 -0.3899231zm9.078369 6.2124634q-0.140625 -0.28112793 -0.203125 -0.6873474q-0.75 0.8286438 -1.953125 0.8294678q-1.140625 7.9345703E-4 -1.890625 -0.65493774q-0.75 -0.6557312 -0.75 -1.6557312q0 -1.234375 0.90625 -1.8912659q0.921875 -0.65689087 2.640625 -0.67367554l0.953125 -6.713867E-4l0 -0.4375q0 -0.53125 -0.28125 -0.8591919q-0.265625 -0.3279419 -0.859375 -0.32751465q-0.515625 3.6621094E-4 -0.8125 0.25054932q-0.296875 0.25021362 -0.296875 0.6877136l-2.078125 0.0014343262q0 -0.671875 0.40625 -1.2346497q0.421875 -0.5784302 1.171875 -0.907074q0.765625 -0.3286438 1.71875 -0.3293152q1.421875 -9.765625E-4 2.265625 0.7171936q0.84375 0.71817017 0.84375 2.0306702l0 3.34375q0.015625 1.109375 0.3125 1.6716614l0 0.125l-2.09375 0.0014343262zm-1.703125 -1.4363098q0.453125 -3.0517578E-4 0.828125 -0.20370483q0.390625 -0.20339966 0.578125 -0.5472717l0 -1.328125l-0.765625 5.187988E-4q-1.5625 0.0010986328 -1.65625 1.0636597l0 0.125q0 0.390625 0.265625 0.6404419q0.265625 0.2498169 0.75 0.2494812zm7.5451965 -8.2083435l0 1.890625l1.328125 -9.1552734E-4l0 1.53125l-1.328125 9.1552734E-4l0 3.859375q0 0.421875 0.15625 0.60928345q0.171875 0.18737793 0.640625 0.18704224q0.34375 -2.1362305E-4 0.609375 -0.04727173l0 1.5625q-0.609375 0.18789673 -1.25 0.18835449q-2.171875 0.0014953613 -2.21875 -2.1859741l0 -4.171875l-1.125 7.6293945E-4l0 -1.53125l1.125 -7.6293945E-4l0 -1.890625l2.0625 -0.0014343262zm4.6709595 9.637421l-2.078125 0.0014343262l0 -7.75l2.078125 -0.0014343262l0 7.75zm-2.203125 -9.748505q0 -0.46875 0.3125 -0.7658386q0.3125 -0.29708862 0.84375 -0.29745483q0.53125 -3.6621094E-4 0.84375 0.29629517q0.3125 0.29666138 0.3125 0.7654114q0 0.46875 -0.3125 0.7814636q-0.3125 0.29708862 -0.84375 0.29745483q-0.515625 3.6621094E-4 -0.84375 -0.29629517q-0.3125 -0.31228638 -0.3125 -0.7810364zm6.792145 7.214081l1.4375 -5.219757l2.171875 -0.0014953613l-2.609375 7.7518005l-1.984375 0.001373291l-2.609375 -7.7481995l2.15625 -0.0014953613l1.4375 5.2177734zm6.7037354 2.5266113l-2.078125 0.0014343262l0 -7.75l2.078125 -0.0014343262l0 7.75zm-2.203125 -9.748474q0 -0.46875 0.3125 -0.7658386q0.3125 -0.29708862 0.84375 -0.29745483q0.53125 -3.6621094E-4 0.84375 0.29629517q0.3125 0.29666138 0.3125 0.7654114q0 0.46875 -0.3125 0.7814636q-0.3125 0.29708862 -0.84375 0.29745483q-0.515625 3.6621094E-4 -0.84375 -0.29629517q-0.3125 -0.31228638 -0.3125 -0.7810364zm6.37027 0.10498047l0 1.890625l1.328125 -9.1552734E-4l0 1.53125l-1.328125 9.1552734E-4l0 3.859375q0 0.421875 0.15625 0.60928345q0.171875 0.18737793 0.640625 0.18704224q0.34375 -2.4414062E-4 0.609375 -0.047302246l0 1.5625q-0.609375 0.18792725 -1.25 0.18838501q-2.171875 0.0014953613 -2.21875 -2.1859741l0 -4.171875l-1.125 7.6293945E-4l0 -1.53125l1.125 -7.6293945E-4l0 -1.890625l2.0625 -0.0014343262zm5.3740845 6.7150574l1.421875 -4.829132l2.21875 -0.0015258789l-3.109375 8.955292l-0.171875 0.40637207q-0.6875 1.5160828 -2.28125 1.5171814q-0.453125 3.0517578E-4 -0.921875 -0.13998413l0 -1.5625l0.3125 0.015411377q0.59375 -4.272461E-4 0.875 -0.18811035q0.296875 -0.17208862 0.453125 -0.5940552l0.25 -0.6408081l-2.71875 -7.763733l2.234375 -0.0015563965l1.4375 4.8271484z" fill-rule="nonzero"/><path fill="#ffffff" d="m370.5249 437.59088l-2.15625 0.0014648438l0 -10.421875l2.15625 -0.0014953613l0 10.4219055zm3.7567444 -7.752594l0.0625 0.90618896q0.828125 -1.0474548 2.21875 -1.0484009q1.234375 -8.544922E-4 1.8280945 0.7331238q0.609375 0.71832275 0.625 2.1558228l0 5.0l-2.0624695 0.0014038086l0 -4.953125q0 -0.65625 -0.296875 -0.9529114q-0.28125 -0.2966919 -0.953125 -0.29623413q-0.875 6.1035156E-4 -1.3125 0.7509155l0 5.453125l-2.0625 0.0014343262l0 -7.75l1.953125 -0.0013427734zm8.2083435 -0.0056762695l0.0625 0.9062195q0.828125 -1.0474548 2.21875 -1.0484314q1.234375 -8.544922E-4 1.828125 0.7331238q0.609375 0.71832275 0.625 2.1558228l0 5.0l-2.0625 0.0014343262l0 -4.953125q0 -0.65625 -0.296875 -0.9529419q-0.28125 -0.29666138 -0.953125 -0.2962036q-0.875 6.1035156E-4 -1.3125 0.7509155l0 5.453125l-2.0625 0.0014038086l0 -7.75l1.953125 -0.0013427734zm5.9739685 3.8083801q0 -1.15625 0.4375 -2.0628052q0.453125 -0.9065552 1.28125 -1.39151q0.84375 -0.50057983 1.9375 -0.5013428q1.578125 -0.0010681152 2.5625 0.96698q0.984375 0.9524536 1.109375 2.592987l0.015625 0.53125q0 1.78125 -1.0 2.860077q-1.0 1.0787964 -2.671875 1.079956q-1.671875 0.001159668 -2.671875 -1.060669q-1.0 -1.0774231 -1.0 -2.921173l0 -0.09375zm2.078125 0.13919067q0 1.109375 0.40625 1.6872253q0.421875 0.5778198 1.1875 0.577301q0.75 -5.187988E-4 1.171875 -0.563324q0.421875 -0.57839966 0.421875 -1.8440247q0 -1.09375 -0.421875 -1.6872253q-0.421875 -0.5934448 -1.1875 -0.592926q-0.75 5.187988E-4 -1.171875 0.594574q-0.40625 0.59402466 -0.40625 1.8283997zm9.320282 1.2591858l1.4375 -5.2197266l2.171875 -0.0014953613l-2.609375 7.7518005l-1.984375 0.001373291l-2.609375 -7.74823l2.15625 -0.0014648438l1.4375 5.217743zm8.893188 2.525116q-0.140625 -0.28115845 -0.203125 -0.6873474q-0.75 0.8286438 -1.953125 0.8294678q-1.140625 7.9345703E-4 -1.890625 -0.65493774q-0.75 -0.6557312 -0.75 -1.6557312q0 -1.234375 0.90625 -1.8912659q0.921875 -0.65689087 2.640625 -0.67370605l0.953125 -6.4086914E-4l0 -0.4375q0 -0.53125 -0.28125 -0.8591919q-0.265625 -0.3279419 -0.859375 -0.32751465q-0.515625 3.3569336E-4 -0.8125 0.25054932q-0.296875 0.25021362 -0.296875 0.6877136l-2.078125 0.0014343262q0 -0.671875 0.40625 -1.2346497q0.421875 -0.5784302 1.171875 -0.907074q0.765625 -0.3286438 1.71875 -0.3293152q1.421875 -9.765625E-4 2.265625 0.7171936q0.84375 0.71817017 0.84375 2.0306702l0 3.34375q0.015625 1.109375 0.3125 1.6716614l0 0.125l-2.09375 0.0014343262zm-1.703125 -1.4363098q0.453125 -3.3569336E-4 0.828125 -0.20370483q0.390625 -0.20339966 0.578125 -0.5472717l0 -1.328125l-0.765625 5.187988E-4q-1.5625 0.0010986328 -1.65625 1.0636597l0 0.125q0 0.390625 0.265625 0.6404419q0.265625 0.2498169 0.75 0.2494812zm7.5451965 -8.2083435l0 1.890625l1.328125 -9.1552734E-4l0 1.53125l-1.328125 9.1552734E-4l0 3.859375q0 0.421875 0.15625 0.60928345q0.171875 0.18737793 0.640625 0.18704224q0.34375 -2.4414062E-4 0.609375 -0.047302246l0 1.5625q-0.609375 0.18792725 -1.25 0.18838501q-2.171875 0.0014953613 -2.21875 -2.1859741l0 -4.171875l-1.125 7.6293945E-4l0 -1.53125l1.125 -7.6293945E-4l0 -1.890625l2.0625 -0.0014343262zm4.6709595 9.637421l-2.078125 0.0014038086l0 -7.75l2.078125 -0.0014343262l0 7.7500305zm-2.203125 -9.748505q0 -0.46875 0.3125 -0.7658386q0.3125 -0.29708862 0.84375 -0.29745483q0.53125 -3.6621094E-4 0.84375 0.29629517q0.3125 0.29666138 0.3125 0.7654114q0 0.46875 -0.3125 0.7814636q-0.3125 0.29708862 -0.84375 0.29745483q-0.515625 3.6621094E-4 -0.84375 -0.29629517q-0.3125 -0.31228638 -0.3125 -0.7810364zm3.5733948 5.810028q0 -1.15625 0.4375 -2.0627747q0.453125 -0.9065857 1.28125 -1.39151q0.84375 -0.50057983 1.9375 -0.5013428q1.578125 -0.0010986328 2.5625 0.96698q0.984375 0.9524536 1.109375 2.592987l0.015625 0.5312195q0 1.78125 -1.0 2.860077q-1.0 1.0788269 -2.671875 1.0799866q-1.671875 0.0011291504 -2.671875 -1.060669q-1.0 -1.0774231 -1.0 -2.9212036l0 -0.09375zm2.078125 0.13922119q0 1.109375 0.40625 1.6871948q0.421875 0.57785034 1.1875 0.57733154q0.75 -5.187988E-4 1.171875 -0.563324q0.421875 -0.5784302 0.421875 -1.8440552q0 -1.09375 -0.421875 -1.6871948q-0.421875 -0.5934448 -1.1875 -0.592926q-0.75 5.187988E-4 -1.171875 0.59454346q-0.40625 0.5940552 -0.40625 1.8284302zm8.443329 -3.9589539l0.0625 0.90618896q0.828125 -1.0474548 2.21875 -1.0484009q1.234375 -8.544922E-4 1.828125 0.7331238q0.609375 0.71832275 0.625 2.1558228l0 5.0l-2.0625 0.0014038086l0 -4.953125q0 -0.65625 -0.296875 -0.9529114q-0.28125 -0.2966919 -0.953125 -0.29623413q-0.875 6.1035156E-4 -1.3125 0.7509155l0 5.453125l-2.0625 0.0014343262l0 -7.75l1.953125 -0.0013427734z" fill-rule="nonzero"/><path fill="#ff9900" d="m331.25806 428.6499c-5.0256042 -7.261566 -9.489227 -14.912079 -13.390869 -22.951508c-5.4085693 5.395447 -10.430511 11.349457 -15.452484 17.303467c3.6904602 6.533325 6.9943237 12.508087 10.860199 18.093903c44.07068 63.678314 118.87094 93.697266 190.81458 83.56055c-4.2524414 -6.144348 -8.329498 -13.236298 -11.844574 -20.717133c-61.230316 5.200592 -123.4881 -21.106842 -160.98685 -75.289276z" fill-rule="evenodd"/><path stroke="#ffffff" stroke-width="1.0" stroke-miterlimit="8.0" stroke-linecap="butt" d="m331.25806 428.6499c-5.0256042 -7.261566 -9.489227 -14.912079 -13.390869 -22.951508c-5.4085693 5.395447 -10.430511 11.349457 -15.452484 17.303467c3.6904602 6.533325 6.9943237 12.508087 10.860199 18.093903c44.07068 63.678314 118.87094 93.697266 190.81458 83.56055c-4.2524414 -6.144348 -8.329498 -13.236298 -11.844574 -20.717133c-61.230316 5.200592 -123.4881 -21.106842 -160.98685 -75.289276z" fill-rule="evenodd"/><path fill="#000000" fill-opacity="0.0" d="m302.63412 267.4029l105.07086 0.06298828l0 59.08661l-105.07086 -0.06298828z" fill-rule="evenodd"/><path fill="#ffffff" d="m330.45956 289.371l0 3.671875l-2.140625 -0.0012817383l0 -10.421875l4.0625 0.0024414062q1.171875 7.019043E-4 2.0625 0.4387207q0.890625 0.42242432 1.359375 1.219574q0.484375 0.78152466 0.484375 1.7971497q0 1.53125 -1.046875 2.4212646q-1.046875 0.87435913 -2.90625 0.8732605l-1.875 -0.0011291504zm0 -1.734375l1.921875 0.001159668q0.84375 4.8828125E-4 1.28125 -0.40548706q0.453125 -0.40597534 0.453125 -1.1403503q0 -0.765625 -0.453125 -1.2346497q-0.4375 -0.48464966 -1.234375 -0.5007324l-1.96875 -0.0011901855l0 3.28125zm11.516083 -0.38372803q-0.421875 -0.06274414 -0.734375 -0.062927246q-1.171875 -7.019043E-4 -1.546875 0.79592896l0 5.0625l-2.0625 -0.0012207031l0 -7.75l1.953125 0.001159668l0.0625 0.9375305q0.609375 -1.0777588 1.71875 -1.0770874q0.34375 2.1362305E-4 0.640625 0.09414673l-0.03125 1.9999695zm0.41610718 1.8596191q0 -1.15625 0.4375 -2.0622253q0.453125 -0.90597534 1.28125 -1.3898621q0.84375 -0.4994812 1.9375 -0.49884033q1.578125 9.460449E-4 2.5625 0.9703064q0.984375 0.95370483 1.109375 2.5943909l0.015625 0.5312805q0 1.78125 -1.0 2.8587646q-1.0 1.0775146 -2.671875 1.0765381q-1.671875 -0.0010070801 -2.671875 -1.0641174q-1.0 -1.0787354 -1.0 -2.9224854l0 -0.09375zm2.078125 0.14187622q0 1.109375 0.40625 1.6877441q0.421875 0.57836914 1.1875 0.5788574q0.75 4.272461E-4 1.171875 -0.5617981q0.421875 -0.57788086 0.421875 -1.8435059q0 -1.09375 -0.421875 -1.6877441q-0.421875 -0.59402466 -1.1875 -0.5944824q-0.75 -4.5776367E-4 -1.171875 0.5930481q-0.40625 0.59350586 -0.40625 1.8278809zm13.505829 0.008117676q0 1.859375 -0.796875 2.9057617q-0.78125 1.0307922 -2.203125 1.0299377q-1.265625 -7.6293945E-4 -2.015625 -0.9699707l-0.09375 0.82806396l-1.859375 -0.0010986328l0 -11.0l2.0625 0.0012207031l0 3.953125q0.71875 -0.84332275 1.890625 -0.84262085q1.40625 8.544922E-4 2.203125 1.0482178q0.8125 1.0473328 0.8125 2.9223633l0 0.125zm-2.0625 -0.15750122q0 -1.171875 -0.375 -1.7033386q-0.375 -0.54711914 -1.109375 -0.5475464q-0.984375 -6.1035156E-4 -1.359375 0.811676l0 3.046875q0.375 0.81274414 1.375 0.813324q1.0 6.1035156E-4 1.3125 -0.98358154q0.15625 -0.46865845 0.15625 -1.4374084zm5.5325623 3.9564514l-2.078125 -0.0012512207l0 -11.0l2.078125 0.0012512207l0 11.0zm5.260895 0.14376831q-1.703125 -0.0010070801 -2.78125 -1.0485535q-1.0625 -1.0474854 -1.0625 -2.7818604l0 -0.203125q0 -1.15625 0.453125 -2.0778809q0.453125 -0.92160034 1.265625 -1.4211121q0.828125 -0.4994812 1.890625 -0.49887085q1.59375 9.765625E-4 2.5 1.0171509q0.921875 1.0005493 0.921875 2.8286743l0 0.84375l-4.9375 -0.002960205q0.109375 0.76568604 0.609375 1.2191162q0.5 0.45339966 1.28125 0.45388794q1.1875 7.019043E-4 1.859375 -0.85827637l1.015625 1.1412354q-0.46875 0.65597534 -1.265625 1.0304871q-0.78125 0.35891724 -1.75 0.3583374zm-0.234375 -6.3595276q-0.625 -3.6621094E-4 -1.015625 0.42126465q-0.375 0.42166138 -0.46875 1.1872253l2.875 0.001739502l0 -0.15625q-0.015625 -0.6875305 -0.375 -1.0627441q-0.359375 -0.39083862 -1.015625 -0.39123535zm6.531494 -1.5273132l0.0625 0.8750305q0.828125 -1.0151367 2.234375 -1.0142822q1.484375 8.8500977E-4 2.046875 1.1887207q0.8125 -1.1870117 2.328125 -1.1860962q1.25 7.324219E-4 1.859375 0.73547363q0.625 0.7347717 0.625 2.2191467l0 4.9375l-2.078125 -0.0012512207l0 -4.9375q0 -0.65625 -0.265625 -0.9532776q-0.25 -0.3126526 -0.890625 -0.31304932q-0.9375 -5.493164E-4 -1.296875 0.88986206l0.015625 5.3125l-2.078125 -0.0012512207l0 -4.9375q0 -0.671875 -0.265625 -0.9689026q-0.265625 -0.2970276 -0.890625 -0.29742432q-0.890625 -5.187988E-4 -1.28125 0.73361206l0 5.46875l-2.0625 -0.0012207031l0 -7.75l1.9375 0.001159668z" fill-rule="nonzero"/><path fill="#ffffff" d="m336.97278 308.3124q0 -0.609375 -0.4375 -0.93777466q-0.421875 -0.32836914 -1.546875 -0.6884155q-1.109375 -0.3600464 -1.75 -0.7041626q-1.78125 -0.9698181 -1.78125 -2.594818q0 -0.84375 0.46875 -1.4997253q0.484375 -0.65597534 1.375 -1.030426q0.890625 -0.3744812 2.0 -0.3738098q1.125 6.713867E-4 1.984375 0.4074402q0.875 0.4067688 1.359375 1.141449q0.484375 0.73464966 0.484375 1.6721497l-2.140625 -0.0012817383q0 -0.71875 -0.453125 -1.1096497q-0.453125 -0.40652466 -1.265625 -0.40698242q-0.796875 -4.8828125E-4 -1.234375 0.34298706q-0.421875 0.32788086 -0.421875 0.87475586q0 0.5 0.5 0.8440552q0.515625 0.34405518 1.515625 0.6571655q1.828125 0.54797363 2.65625 1.3609619q0.84375 0.8129883 0.84375 2.0317383q0 1.359375 -1.03125 2.1243896q-1.015625 0.76501465 -2.75 0.76397705q-1.203125 -7.324219E-4 -2.1875 -0.43881226q-0.984375 -0.43807983 -1.5 -1.20401q-0.515625 -0.7659302 -0.515625 -1.7815552l2.140625 0.0012817383q0 1.734375 2.0625 1.7355957q0.765625 4.5776367E-4 1.1875 -0.3117981q0.4375 -0.31222534 0.4375 -0.87472534zm3.1505127 -1.2012329q0 -1.15625 0.4375 -2.0622559q0.453125 -0.90597534 1.28125 -1.3898315q0.84375 -0.49951172 1.9375 -0.49884033q1.578125 9.460449E-4 2.5625 0.9702759q0.984375 0.95370483 1.109375 2.5944214l0.015625 0.53125q0 1.78125 -1.0 2.8587952q-1.0 1.0775146 -2.671875 1.0765076q-1.671875 -0.0010070801 -2.671875 -1.0640869q-1.0 -1.0787354 -1.0 -2.9224854l0 -0.09375zm2.078125 0.14187622q0 1.109375 0.40625 1.6877441q0.421875 0.57836914 1.1875 0.5788269q0.75 4.5776367E-4 1.171875 -0.5617981q0.421875 -0.57788086 0.421875 -1.8435059q0 -1.09375 -0.421875 -1.6877441q-0.421875 -0.59399414 -1.1875 -0.5944519q-0.75 -4.5776367E-4 -1.171875 0.5930481q-0.40625 0.59350586 -0.40625 1.8278809zm8.724579 3.8020935l-2.078125 -0.0012512207l0 -11.0l2.078125 0.0012512207l0 11.0zm4.58902 -2.5285034l1.4375 -5.2178955l2.171875 0.0013122559l-2.609375 7.7484436l-1.984375 -0.0011901855l-2.609375 -7.7515564l2.15625 0.0012817383l1.4375 5.2196045zm6.7037354 2.5352783l-2.078125 -0.0012512207l0 -7.75l2.078125 0.0012512207l0 7.75zm-2.203125 -9.751312q0 -0.46875 0.3125 -0.7654419q0.3125 -0.2966919 0.84375 -0.29638672q0.53125 3.3569336E-4 0.84375 0.2973938q0.3125 0.2970581 0.3125 0.7658081q0 0.46875 -0.3125 0.7810669q-0.3125 0.2966919 -0.84375 0.2963562q-0.515625 -3.0517578E-4 -0.84375 -0.29736328q-0.3125 -0.3126831 -0.3125 -0.7814331zm5.80777 2.003479l0.0625 0.9062805q0.828125 -1.0463867 2.21875 -1.0455322q1.234375 7.324219E-4 1.828125 0.7354431q0.609375 0.7191162 0.625 2.1566467l0 5.0l-2.0625 -0.0012512207l0 -4.953125q0 -0.65625 -0.296875 -0.9533081q-0.28125 -0.2970276 -0.953125 -0.29742432q-0.875 -5.187988E-4 -1.3125 0.74920654l0 5.453125l-2.0625 -0.0012512207l0 -7.75l1.953125 0.0011901855zm6.005249 3.831726q0 -1.78125 0.84375 -2.8745117q0.84375 -1.0932312 2.28125 -1.0923767q1.28125 7.6293945E-4 1.984375 0.8761902l0.09375 -0.73431396l1.875 0.0011291504l0 7.5q0 1.015625 -0.46875 1.7653503q-0.46875 0.7496948 -1.3125 1.1398315q-0.828125 0.39013672 -1.953125 0.3894348q-0.84375 -4.8828125E-4 -1.65625 -0.34472656q-0.8125 -0.32861328 -1.21875 -0.8757324l0.90625 -1.2494507q0.78125 0.85983276 1.875 0.86050415q0.828125 4.8828125E-4 1.28125 -0.43673706q0.46875 -0.43722534 0.46875 -1.2497253l0 -0.421875q-0.71875 0.81207275 -1.890625 0.81137085q-1.390625 -8.239746E-4 -2.25 -1.0950928q-0.859375 -1.0942688 -0.859375 -2.8911438l0 -0.078125zm2.0625 0.1418457q0 1.046875 0.421875 1.6565247q0.421875 0.59399414 1.15625 0.5944214q0.953125 5.79834E-4 1.359375 -0.702301l0 -3.265625q-0.421875 -0.70336914 -1.34375 -0.70391846q-0.75 -4.5776367E-4 -1.171875 0.6086731q-0.421875 0.60910034 -0.421875 1.8122253z" fill-rule="nonzero"/><path fill="#ff0000" d="m578.57404 472.9188c-23.572144 16.313843 -49.884766 26.269196 -76.095245 30.375275c3.6880493 6.5282593 7.7623596 13.614685 12.011627 19.754517c26.385437 -5.0526733 52.311768 -15.566193 76.44513 -32.268494c45.46057 -31.462463 74.06964 -77.67883 83.341675 -127.848206c-7.718872 2.0400085 -15.823975 3.521881 -23.36792 4.6152954c-10.153809 41.698975 -34.732117 79.34711 -72.335266 105.37161z" fill-rule="evenodd"/><path stroke="#ffffff" stroke-width="1.0" stroke-miterlimit="8.0" stroke-linecap="butt" d="m578.57404 472.9188c-23.572144 16.313843 -49.884766 26.269196 -76.095245 30.375275c3.6880493 6.5282593 7.7623596 13.614685 12.011627 19.754517c26.385437 -5.0526733 52.311768 -15.566193 76.44513 -32.268494c45.46057 -31.462463 74.06964 -77.67883 83.341675 -127.848206c-7.718872 2.0400085 -15.823975 3.521881 -23.36792 4.6152954c-10.153809 41.698975 -34.732117 79.34711 -72.335266 105.37161z" fill-rule="evenodd"/><path fill="#000000" fill-opacity="0.0" d="m404.1973 178.92178l136.94492 -0.06300354l0 59.11812l-136.94492 0.06298828z" fill-rule="evenodd"/><path fill="#ffffff" d="m425.8199 201.08214q-0.125 1.671936 -1.25 2.6412048q-1.109375 0.96925354 -2.9375 0.9700928q-2.015625 9.3078613E-4 -3.171875 -1.3422852q-1.140625 -1.3588562 -1.140625 -3.7026062l0 -0.640625q0 -1.5 0.53125 -2.6408691q0.53125 -1.1564941 1.515625 -1.7663269q0.984375 -0.6098175 2.28125 -0.6104126q1.8125 -8.392334E-4 2.90625 0.9674072q1.109375 0.96824646 1.28125 2.70253l-2.140625 9.918213E-4q-0.078125 -0.9999695 -0.5625 -1.4528656q-0.484375 -0.45289612 -1.484375 -0.45243835q-1.0625 4.8828125E-4 -1.59375 0.7663574q-0.53125 0.76586914 -0.546875 2.3908691l0 0.78125q0 1.6875 0.5 2.468521q0.515625 0.7810211 1.625 0.7805023q0.984375 -4.4250488E-4 1.46875 -0.4537964q0.5 -0.45335388 0.578125 -1.4065247l2.140625 -9.765625E-4zm0.9489136 -0.4691925q0 -1.15625 0.4375 -2.0626984q0.453125 -0.9064636 1.28125 -1.3912201q0.84375 -0.50038147 1.9375 -0.500885q1.578125 -7.171631E-4 2.5625 0.9675751q0.984375 0.95266724 1.109375 2.5932312l0.015625 0.53125q0 1.78125 -1.0 2.8598328q-1.0 1.0785828 -2.671875 1.079361q-1.671875 7.6293945E-4 -2.671875 -1.0612793q-1.0 -1.0776672 -1.0 -2.9214172l0 -0.09375zm2.078125 0.13967896q0 1.109375 0.40625 1.6873016q0.421875 0.5779419 1.1875 0.57759094q0.75 -3.5095215E-4 1.171875 -0.5630493q0.421875 -0.5783081 0.421875 -1.8439331q0 -1.09375 -0.421875 -1.6873169q-0.421875 -0.59355164 -1.1875 -0.5932007q-0.75 3.5095215E-4 -1.171875 0.59428406q-0.40625 0.59394836 -0.40625 1.8283234zm8.474579 -3.9570312l0.0625 0.8749695q0.828125 -1.0160065 2.234375 -1.0166473q1.484375 -6.866455E-4 2.046875 1.186554q0.8124695 -1.1878662 2.3280945 -1.1885681q1.25 -5.79834E-4 1.859375 0.7335205q0.625 0.7340851 0.625 2.21846l0 4.9375l-2.078125 9.613037E-4l0 -4.9375q0 -0.65625 -0.265625 -0.9530029q-0.25 -0.3123932 -0.890625 -0.312088q-0.9375 4.272461E-4 -1.296875 0.8912201l0.015625 5.3124847l-2.0780945 9.613037E-4l0 -4.9375q0 -0.671875 -0.265625 -0.9686279q-0.265625 -0.29675293 -0.890625 -0.296463q-0.890625 4.119873E-4 -1.28125 0.73495483l0 5.46875l-2.0625 9.613037E-4l0 -7.75l1.9375 -9.0026855E-4zm12.688232 -0.0058288574l0.0625 0.8749695q0.828125 -1.0160065 2.234375 -1.0166626q1.484375 -6.713867E-4 2.046875 1.1865692q0.8125 -1.1878815 2.328125 -1.1885681q1.25 -5.79834E-4 1.859375 0.7335205q0.625 0.7340851 0.625 2.21846l0 4.9375l-2.078125 9.460449E-4l0 -4.9375q0 -0.65625 -0.265625 -0.9530029q-0.25 -0.31237793 -0.890625 -0.312088q-0.9375 4.272461E-4 -1.296875 0.8912201l0.015625 5.3125l-2.078125 9.613037E-4l0 -4.9375153q0 -0.671875 -0.265625 -0.9686279q-0.265625 -0.29675293 -0.890625 -0.296463q-0.890625 4.119873E-4 -1.28125 0.7349701l0 5.46875l-2.0625 9.460449E-4l0 -7.75l1.9375 -8.8500977E-4zm15.391357 6.96167q-0.765625 0.92222595 -2.125 0.92285156q-1.25 5.79834E-4 -1.90625 -0.70225525q-0.640625 -0.7184448 -0.65625 -2.1090698l0 -5.078125l2.0625 -9.460449E-4l0 5.015625q0 1.203125 1.109375 1.2026062q1.046875 -4.7302246E-4 1.4375 -0.7350311l0 -5.484375l2.078125 -9.613037E-4l0 7.75l-1.953125 9.0026855E-4l-0.046875 -0.7812195zm5.466858 -6.9712677l0.0625 0.9062195q0.828125 -1.0472565 2.21875 -1.0478973q1.234375 -5.645752E-4 1.828125 0.73353577q0.609375 0.71847534 0.625 2.15596l0 5.0l-2.0625 9.460449E-4l0 -4.953125q0 -0.65625 -0.296875 -0.9529877q-0.28125 -0.29673767 -0.953125 -0.2964325q-0.875 3.9672852E-4 -1.3125 0.75061035l0 5.453125l-2.0625 9.460449E-4l0 -7.75l1.953125 -9.0026855E-4zm8.4895935 7.7460938l-2.078125 9.613037E-4l0 -7.75l2.078125 -9.613037E-4l0 7.75zm-2.203125 -9.748993q0 -0.46875 0.3125 -0.7657623q0.3125 -0.29701233 0.84375 -0.29725647q0.53125 -2.4414062E-4 0.84375 0.29647827q0.3125 0.29673767 0.3125 0.7654877q0 0.46875 -0.3125 0.7813873q-0.3125 0.2970276 -0.84375 0.29727173q-0.515625 2.2888184E-4 -0.84375 -0.29649353q-0.3125 -0.31236267 -0.3125 -0.7811127zm7.12027 8.215485q0.578125 -2.746582E-4 0.921875 -0.31292725q0.359375 -0.31266785 0.375 -0.82829285l1.9375 -9.0026855E-4q0 0.78125 -0.421875 1.4376984q-0.421875 0.65644836 -1.15625 1.016159q-0.734375 0.3597107 -1.625 0.36012268q-1.65625 7.6293945E-4 -2.625 -1.0456696q-0.953125 -1.0620575 -0.953125 -2.9214325l0 -0.140625q0 -1.78125 0.953125 -2.8441925q0.953125 -1.0785675 2.609375 -1.0793304q1.453125 -6.713867E-4 2.328125 0.8270569q0.890625 0.827713 0.890625 2.202713l-1.9375 9.0026855E-4q-0.015625 -0.59375 -0.375 -0.96858215q-0.34375 -0.3904724 -0.9375 -0.39019775q-0.71875 3.3569336E-4 -1.09375 0.53175354q-0.359375 0.53141785 -0.359375 1.7032928l0 0.21875q0 1.203125 0.359375 1.7185822q0.359375 0.51545715 1.109375 0.51512146zm8.90863 1.5271454q-0.140625 -0.2811737 -0.203125 -0.68740845q-0.75 0.82847595 -1.953125 0.82902527q-1.140625 5.340576E-4 -1.890625 -0.65538025q-0.75 -0.65589905 -0.75 -1.655899q0 -1.234375 0.90625 -1.891037q0.921875 -0.65667725 2.640625 -0.6730957l0.953125 -4.4250488E-4l0 -0.4375q0 -0.53125 -0.28125 -0.8592377q-0.265625 -0.32800293 -0.859375 -0.32772827q-0.515625 2.2888184E-4 -0.8125 0.2503662q-0.296875 0.25013733 -0.296875 0.6876373l-2.078125 9.613037E-4q0 -0.671875 0.40625 -1.2345734q0.421875 -0.5783081 1.171875 -0.90678406q0.765625 -0.32847595 1.71875 -0.32891846q1.421875 -6.5612793E-4 2.265625 0.7177124q0.84375 0.71836853 0.84375 2.0308685l0 3.34375q0.015625 1.1093597 0.3125 1.6717224l0 0.125l-2.09375 9.613037E-4zm-1.703125 -1.4367065q0.453125 -2.1362305E-4 0.828125 -0.20350647q0.390625 -0.2033081 0.578125 -0.54714966l0 -1.328125l-0.765625 3.5095215E-4q-1.5625 7.171631E-4 -1.65625 1.0632629l0 0.125q0 0.390625 0.265625 0.6405029q0.265625 0.24987793 0.75 0.2496643zm7.5451965 -8.206604l0 1.890625l1.328125 -6.1035156E-4l0 1.53125l-1.328125 6.1035156E-4l0 3.859375q0 0.421875 0.15625 0.6092987q0.171875 0.1874237 0.640625 0.18721008q0.34375 -1.5258789E-4 0.609375 -0.04714966l0 1.5625q-0.609375 0.18777466 -1.25 0.18806458q-2.171875 0.0010070801 -2.21875 -2.1864777l0 -4.171875l-1.125 5.187988E-4l0 -1.53125l1.125 -5.187988E-4l0 -1.890625l2.0625 -9.460449E-4zm4.6709595 9.6384735l-2.078125 9.613037E-4l0 -7.75l2.078125 -9.613037E-4l0 7.75zm-2.203125 -9.748978q0 -0.46875 0.3125 -0.7657776q0.3125 -0.29701233 0.84375 -0.29725647q0.53125 -2.4414062E-4 0.84375 0.29647827q0.3125 0.29673767 0.3125 0.7654877q0 0.46875 -0.3125 0.7813873q-0.3125 0.2970276 -0.84375 0.29727173q-0.515625 2.2888184E-4 -0.84375 -0.29649353q-0.3125 -0.3123474 -0.3125 -0.7810974zm3.5734253 5.810852q0 -1.15625 0.4375 -2.0626984q0.453125 -0.9064636 1.28125 -1.3912201q0.84375 -0.50038147 1.9375 -0.500885q1.578125 -7.324219E-4 2.5625 0.9675751q0.984375 0.95266724 1.109375 2.5932312l0.015625 0.53125q0 1.78125 -1.0 2.8598328q-1.0 1.0785828 -2.671875 1.0793457q-1.671875 7.7819824E-4 -2.671875 -1.061264q-1.0 -1.0776672 -1.0 -2.9214172l0 -0.09375zm2.078125 0.1396637q0 1.109375 0.40625 1.6873169q0.421875 0.57792664 1.1875 0.5775757q0.75 -3.3569336E-4 1.171875 -0.56303406q0.421875 -0.57832336 0.421875 -1.8439484q0 -1.09375 -0.421875 -1.6873016q-0.421875 -0.59355164 -1.1875 -0.5932007q-0.75 3.3569336E-4 -1.171875 0.59428406q-0.40625 0.5939331 -0.40625 1.8283081zm8.443298 -3.9570007l0.0625 0.9062195q0.828125 -1.0472565 2.21875 -1.0478973q1.234375 -5.645752E-4 1.828125 0.73353577q0.609375 0.71847534 0.625 2.15596l0 5.0l-2.0625 9.460449E-4l0 -4.953125q0 -0.65625 -0.296875 -0.9529877q-0.28125 -0.29673767 -0.953125 -0.2964325q-0.875 3.9672852E-4 -1.3125 0.75061035l0 5.453125l-2.0625 9.460449E-4l0 -7.75l1.953125 -9.0026855E-4zm10.489624 5.604553q0 -0.375 -0.375 -0.59358215q-0.375 -0.21858215 -1.203125 -0.39007568q-2.765625 -0.57684326 -2.765625 -2.3424683q0 -1.03125 0.859375 -1.7191467q0.859375 -0.7035217 2.234375 -0.7041626q1.46875 -6.713867E-4 2.359375 0.7020416q0.890625 0.687088 0.890625 1.796463l-2.078125 9.613037E-4q0 -0.4375 -0.28125 -0.7186279q-0.28125 -0.29673767 -0.890625 -0.296463q-0.53125 2.4414062E-4 -0.8125 0.23475647q-0.28125 0.23449707 -0.28125 0.5938721q0 0.34375 0.3125 0.5623627q0.328125 0.20297241 1.09375 0.35887146q0.78125 0.15588379 1.3125 0.34313965q1.640625 0.6086273 1.640625 2.0930023q0 1.046875 -0.90625 1.703537q-0.90625 0.65667725 -2.34375 0.6573334q-0.984375 4.5776367E-4 -1.734375 -0.34295654q-0.75 -0.34339905 -1.1875 -0.9525757q-0.421875 -0.60917664 -0.421875 -1.3123016l1.953125 -9.0026855E-4q0.03125 0.56248474 0.40625 0.8591919q0.390625 0.2810669 1.015625 0.28077698q0.59375 -2.746582E-4 0.890625 -0.21916199q0.3125 -0.23451233 0.3125 -0.5938873z" fill-rule="nonzero"/><path fill="#ffffff" d="m446.88596 213.8537l-3.203125 0.0014801025l0 8.6875l-2.140625 9.765625E-4l0 -8.6875l-3.15625 0.001449585l0 -1.734375l8.5 -0.00390625l0 1.734375zm4.0078735 8.826279q-1.703125 7.9345703E-4 -2.78125 -1.0455933q-1.0625 -1.0463867 -1.0625 -2.7807617l0 -0.203125q0 -1.15625 0.453125 -2.0783386q0.453125 -0.92207336 1.265625 -1.4224548q0.828125 -0.50038147 1.890625 -0.50086975q1.59375 -7.324219E-4 2.5 1.0144806q0.921875 0.99957275 0.921875 2.8276978l0 0.84375l-4.9375 0.0022735596q0.109375 0.7655792 0.609375 1.2184753q0.5 0.45289612 1.28125 0.4525299q1.1875 -5.493164E-4 1.859375 -0.8602295l1.015625 1.140152q-0.46875 0.6564636 -1.265625 1.0318298q-0.78125 0.3597412 -1.75 0.36018372zm-0.234375 -6.359268q-0.625 2.89917E-4 -1.015625 0.42234802q-0.375 0.42204285 -0.46875 1.1877136l2.875 -0.0013275146l0 -0.15625q-0.015625 -0.68748474 -0.375 -1.0623169q-0.359375 -0.3904724 -1.015625 -0.39016724zm9.078339 6.2145844q-0.140625 -0.28118896 -0.203125 -0.68740845q-0.75 0.8284607 -1.953125 0.82902527q-1.140625 5.187988E-4 -1.890625 -0.65538025q-0.75 -0.6559143 -0.75 -1.6559143q0 -1.234375 0.90625 -1.891037q0.921875 -0.65667725 2.640625 -0.6730957l0.953125 -4.272461E-4l0 -0.4375q0 -0.53125 -0.28125 -0.8592529q-0.265625 -0.32800293 -0.859375 -0.32772827q-0.515625 2.2888184E-4 -0.8125 0.2503662q-0.296875 0.25013733 -0.296875 0.6876373l-2.078125 9.613037E-4q0 -0.671875 0.40625 -1.2345581q0.421875 -0.57832336 1.171875 -0.9067993q0.765625 -0.32847595 1.71875 -0.3289032q1.421875 -6.5612793E-4 2.265625 0.71769714q0.84375 0.71836853 0.84375 2.0308685l0 3.34375q0.015625 1.1093597 0.3125 1.6717377l0 0.125l-2.09375 9.613037E-4zm-1.703125 -1.4367218q0.453125 -2.1362305E-4 0.828125 -0.20350647q0.390625 -0.2033081 0.578125 -0.5471344l0 -1.328125l-0.765625 3.5095215E-4q-1.5625 7.171631E-4 -1.65625 1.0632629l0 0.125q0 0.390625 0.265625 0.6405029q0.265625 0.24987793 0.75 0.24964905zm7.0139465 -6.315735l0.0625 0.87498474q0.828125 -1.0160065 2.234375 -1.0166626q1.484375 -6.866455E-4 2.046875 1.1865692q0.8125 -1.1878815 2.328125 -1.1885834q1.25 -5.645752E-4 1.859375 0.7335205q0.625 0.7340851 0.625 2.21846l0 4.9375153l-2.078125 9.460449E-4l0 -4.9375q0 -0.65625 -0.265625 -0.9530029q-0.25 -0.31237793 -0.890625 -0.312088q-0.9375 4.272461E-4 -1.296875 0.8912201l0.015625 5.3125l-2.078125 9.460449E-4l0 -4.9375q0 -0.671875 -0.265625 -0.9686279q-0.265625 -0.29675293 -0.890625 -0.296463q-0.890625 4.119873E-4 -1.28125 0.7349701l0 5.46875l-2.0625 9.460449E-4l0 -7.75l1.9375 -9.0026855E-4zm17.485107 4.9294586l1.015625 -4.937958l2.0 -9.3078613E-4l-1.984375 7.7509155l-1.734375 8.087158E-4l-1.453125 -4.874344l-1.46875 4.8756866l-1.7343445 7.9345703E-4l-1.96875 -7.7490997l2.0 -9.1552734E-4l0.9999695 4.937042l1.421875 -4.938156l1.5 -6.866455E-4l1.40625 4.936844zm3.7078552 -1.1266937q0 -1.15625 0.4375 -2.0627136q0.453125 -0.90644836 1.28125 -1.3912048q0.84375 -0.5003967 1.9375 -0.50090027q1.578125 -7.171631E-4 2.5625 0.9675751q0.984375 0.95266724 1.109375 2.5932465l0.015625 0.53123474q0 1.78125 -1.0 2.8598328q-1.0 1.078598 -2.671875 1.079361q-1.671875 7.6293945E-4 -2.671875 -1.061264q-1.0 -1.0776672 -1.0 -2.9214172l0 -0.09375zm2.078125 0.1396637q0 1.109375 0.40625 1.6873169q0.421875 0.57792664 1.1875 0.5775757q0.75 -3.5095215E-4 1.171875 -0.56303406q0.421875 -0.57832336 0.421875 -1.8439484q0 -1.09375 -0.421875 -1.6873016q-0.421875 -0.5935669 -1.1875 -0.59321594q-0.75 3.5095215E-4 -1.171875 0.5942993q-0.40625 0.5939331 -0.40625 1.8283081zm10.880829 -2.005005q-0.421875 -0.062301636 -0.734375 -0.062164307q-1.171875 5.340576E-4 -1.546875 0.79759216l0 5.0625l-2.0625 9.460449E-4l0 -7.75l1.953125 -9.0026855E-4l0.0625 0.9374695q0.609375 -1.0783997 1.71875 -1.0789185q0.34375 -1.5258789E-4 0.640625 0.09346008l-0.03125 2.0000153zm3.8145447 2.6857452l-0.75 0.75035095l0 2.359375l-2.0625 9.460449E-4l0 -11.0l2.0625 -9.460449E-4l0 6.09375l0.40625 -0.51582336l1.984375 -2.3290253l2.484375 -0.0011444092l-2.796875 3.2356567l3.03125 4.5142365l-2.375 0.001083374l-1.984375 -3.1084595z" fill-rule="nonzero"/><path fill="#1155cc" d="m377.3989 182.07018c56.67404 -39.22316 127.538635 -41.15439 183.76974 -11.467941c1.3948364 -7.577667 2.402832 -15.714203 2.8497314 -23.462387c-62.267242 -28.815094 -138.39441 -24.89479 -198.99637 17.046799c-8.416931 5.8252106 -17.00821 12.597641 -24.090454 19.152237c7.2345276 3.2585144 14.469086 6.517029 21.703644 9.775543c4.663391 -4.0539856 9.713562 -7.549118 14.763702 -11.0442505z" fill-rule="evenodd"/><path stroke="#ffffff" stroke-width="1.0" stroke-miterlimit="8.0" stroke-linecap="butt" d="m377.3989 182.07018c56.67404 -39.22316 127.538635 -41.15439 183.76974 -11.467941c1.3948364 -7.577667 2.402832 -15.714203 2.8497314 -23.462387c-62.267242 -28.815094 -138.39441 -24.89479 -198.99637 17.046799c-8.416931 5.8252106 -17.00821 12.597641 -24.090454 19.152237c7.2345276 3.2585144 14.469086 6.517029 21.703644 9.775543c4.663391 -4.0539856 9.713562 -7.549118 14.763702 -11.0442505z" fill-rule="evenodd"/><path fill="#000000" fill-opacity="0.0" d="m483.97244 400.08734l136.94485 0l0 59.118134l-136.94485 0z" fill-rule="evenodd"/><path fill="#ffffff" d="m514.47156 425.7264l-2.15625 0l0 -10.421875l2.15625 0l0 10.421875zm3.7567139 -7.75l0.0625 0.90625q0.828125 -1.046875 2.21875 -1.046875q1.234375 0 1.828125 0.734375q0.609375 0.71875 0.625 2.15625l0 5.0l-2.0625 0l0 -4.953125q0 -0.65625 -0.296875 -0.953125q-0.28125 -0.296875 -0.953125 -0.296875q-0.875 0 -1.3125 0.75l0 5.453125l-2.0625 0l0 -7.75l1.953125 0zm5.973999 3.828125q0 -1.8125 0.8125 -2.890625q0.8125 -1.078125 2.21875 -1.078125q1.140625 0 1.875 0.84375l0 -3.953125l2.078125 0l0 11.0l-1.875 0l-0.09375 -0.828125q-0.78125 0.96875 -1.984375 0.96875q-1.375 0 -2.203125 -1.078125q-0.828125 -1.078125 -0.828125 -2.984375zm2.078125 0.140625q0 1.09375 0.375 1.671875q0.375 0.578125 1.09375 0.578125q0.96875 0 1.359375 -0.8125l0 -3.046875q-0.390625 -0.8125 -1.34375 -0.8125q-1.484375 0 -1.484375 2.421875zm10.070923 3.921875q-1.703125 0 -2.78125 -1.046875q-1.0625 -1.046875 -1.0625 -2.78125l0 -0.203125q0 -1.15625 0.453125 -2.078125q0.453125 -0.921875 1.265625 -1.421875q0.828125 -0.5 1.890625 -0.5q1.59375 0 2.5 1.015625q0.921875 1.0 0.921875 2.828125l0 0.84375l-4.9375 0q0.109375 0.765625 0.609375 1.21875q0.5 0.453125 1.28125 0.453125q1.1875 0 1.859375 -0.859375l1.015625 1.140625q-0.46875 0.65625 -1.265625 1.03125q-0.78125 0.359375 -1.75 0.359375zm-0.234375 -6.359375q-0.625 0 -1.015625 0.421875q-0.375 0.421875 -0.46875 1.1875l2.875 0l0 -0.15625q-0.015625 -0.6875 -0.375 -1.0625q-0.359375 -0.390625 -1.015625 -0.390625zm11.562744 2.421875q0 1.78125 -0.8125 2.859375q-0.8125 1.078125 -2.1875 1.078125q-1.1875 0 -1.90625 -0.8125l0 3.65625l-2.0625 0l0 -10.734375l1.921875 0l0.0625 0.765625q0.75 -0.90625 1.96875 -0.90625q1.421875 0 2.21875 1.0625q0.796875 1.0625 0.796875 2.921875l0 0.109375zm-2.0625 -0.15625q0 -1.078125 -0.390625 -1.65625q-0.375 -0.59375 -1.109375 -0.59375q-0.96875 0 -1.34375 0.75l0 3.15625q0.375 0.765625 1.359375 0.765625q1.484375 0 1.484375 -2.421875zm6.9075317 4.09375q-1.703125 0 -2.78125 -1.046875q-1.0625 -1.046875 -1.0625 -2.78125l0 -0.203125q0 -1.15625 0.453125 -2.078125q0.453125 -0.921875 1.265625 -1.421875q0.828125 -0.5 1.890625 -0.5q1.59375 0 2.5 1.015625q0.921875 1.0 0.921875 2.828125l0 0.84375l-4.9375 0q0.109375 0.765625 0.609375 1.21875q0.5 0.453125 1.28125 0.453125q1.1875 0 1.859375 -0.859375l1.015625 1.140625q-0.46875 0.65625 -1.265625 1.03125q-0.78125 0.359375 -1.75 0.359375zm-0.234375 -6.359375q-0.625 0 -1.015625 0.421875q-0.375 0.421875 -0.46875 1.1875l2.875 0l0 -0.15625q-0.015625 -0.6875 -0.375 -1.0625q-0.359375 -0.390625 -1.015625 -0.390625zm6.500244 -1.53125l0.0625 0.90625q0.828125 -1.046875 2.21875 -1.046875q1.234375 0 1.828125 0.734375q0.609375 0.71875 0.625 2.15625l0 5.0l-2.0625 0l0 -4.953125q0 -0.65625 -0.296875 -0.953125q-0.28125 -0.296875 -0.953125 -0.296875q-0.875 0 -1.3125 0.75l0 5.453125l-2.0625 0l0 -7.75l1.953125 0zm5.973999 3.828125q0 -1.8125 0.8125 -2.890625q0.8125 -1.078125 2.21875 -1.078125q1.140625 0 1.875 0.84375l0 -3.953125l2.078125 0l0 11.0l-1.875 0l-0.09375 -0.828125q-0.78125 0.96875 -1.984375 0.96875q-1.375 0 -2.203125 -1.078125q-0.828125 -1.078125 -0.828125 -2.984375zm2.078125 0.140625q0 1.09375 0.375 1.671875q0.375 0.578125 1.09375 0.578125q0.96875 0 1.359375 -0.8125l0 -3.046875q-0.390625 -0.8125 -1.34375 -0.8125q-1.484375 0 -1.484375 2.421875zm10.070923 3.921875q-1.703125 0 -2.78125 -1.046875q-1.0625 -1.046875 -1.0625 -2.78125l0 -0.203125q0 -1.15625 0.453125 -2.078125q0.453125 -0.921875 1.265625 -1.421875q0.828125 -0.5 1.890625 -0.5q1.59375 0 2.5 1.015625q0.921875 1.0 0.921875 2.828125l0 0.84375l-4.9375 0q0.109375 0.765625 0.609375 1.21875q0.5 0.453125 1.28125 0.453125q1.1875 0 1.859375 -0.859375l1.015625 1.140625q-0.46875 0.65625 -1.265625 1.03125q-0.78125 0.359375 -1.75 0.359375zm-0.234375 -6.359375q-0.625 0 -1.015625 0.421875q-0.375 0.421875 -0.46875 1.1875l2.875 0l0 -0.15625q-0.015625 -0.6875 -0.375 -1.0625q-0.359375 -0.390625 -1.015625 -0.390625zm6.500244 -1.53125l0.0625 0.90625q0.828125 -1.046875 2.21875 -1.046875q1.234375 0 1.828125 0.734375q0.609375 0.71875 0.625 2.15625l0 5.0l-2.0625 0l0 -4.953125q0 -0.65625 -0.296875 -0.953125q-0.28125 -0.296875 -0.953125 -0.296875q-0.875 0 -1.3125 0.75l0 5.453125l-2.0625 0l0 -7.75l1.953125 0zm8.770874 -1.890625l0 1.890625l1.328125 0l0 1.53125l-1.328125 0l0 3.859375q0 0.421875 0.15625 0.609375q0.171875 0.1875 0.640625 0.1875q0.34375 0 0.609375 -0.046875l0 1.5625q-0.609375 0.1875 -1.25 0.1875q-2.171875 0 -2.21875 -2.1875l0 -4.171875l-1.125 0l0 -1.53125l1.125 0l0 -1.890625l2.0625 0z" fill-rule="nonzero"/><path fill="#ffffff" d="m526.6578 442.00766l4.5625 0l0 1.71875l-6.703125 0l0 -10.421875l2.140625 0l0 8.703125zm9.217651 1.859375q-1.703125 0 -2.78125 -1.046875q-1.0625 -1.046875 -1.0625 -2.78125l0 -0.203125q0 -1.15625 0.453125 -2.078125q0.453125 -0.921875 1.265625 -1.421875q0.828125 -0.5 1.890625 -0.5q1.59375 0 2.5 1.015625q0.921875 1.0 0.921875 2.828125l0 0.84375l-4.9375 0q0.109375 0.765625 0.609375 1.21875q0.5 0.453125 1.28125 0.453125q1.1875 0 1.859375 -0.859375l1.015625 1.140625q-0.46875 0.65625 -1.265625 1.03125q-0.78125 0.359375 -1.75 0.359375zm-0.234375 -6.359375q-0.625 0 -1.015625 0.421875q-0.375 0.421875 -0.46875 1.1875l2.875 0l0 -0.15625q-0.015625 -0.6875 -0.375 -1.0625q-0.359375 -0.390625 -1.015625 -0.390625zm9.078369 6.21875q-0.140625 -0.28125 -0.203125 -0.6875q-0.75 0.828125 -1.953125 0.828125q-1.140625 0 -1.890625 -0.65625q-0.75 -0.65625 -0.75 -1.65625q0 -1.234375 0.90625 -1.890625q0.921875 -0.65625 2.640625 -0.671875l0.953125 0l0 -0.4375q0 -0.53125 -0.28125 -0.859375q-0.265625 -0.328125 -0.859375 -0.328125q-0.515625 0 -0.8125 0.25q-0.296875 0.25 -0.296875 0.6875l-2.078125 0q0 -0.671875 0.40625 -1.234375q0.421875 -0.578125 1.171875 -0.90625q0.765625 -0.328125 1.71875 -0.328125q1.421875 0 2.265625 0.71875q0.84375 0.71875 0.84375 2.03125l0 3.34375q0.015625 1.109375 0.3125 1.671875l0 0.125l-2.09375 0zm-1.703125 -1.4375q0.453125 0 0.828125 -0.203125q0.390625 -0.203125 0.578125 -0.546875l0 -1.328125l-0.765625 0q-1.5625 0 -1.65625 1.0625l0 0.125q0 0.390625 0.265625 0.640625q0.265625 0.25 0.75 0.25zm9.420227 -4.359375q-0.421875 -0.0625 -0.734375 -0.0625q-1.171875 0 -1.546875 0.796875l0 5.0625l-2.0625 0l0 -7.75l1.953125 0l0.0625 0.9375q0.609375 -1.078125 1.71875 -1.078125q0.34375 0 0.640625 0.09375l-0.03125 2.0zm2.9082642 -1.953125l0.0625 0.90625q0.828125 -1.046875 2.21875 -1.046875q1.234375 0 1.828125 0.734375q0.609375 0.71875 0.625 2.15625l0 5.0l-2.0625 0l0 -4.953125q0 -0.65625 -0.296875 -0.953125q-0.28125 -0.296875 -0.953125 -0.296875q-0.875 0 -1.3125 0.75l0 5.453125l-2.0625 0l0 -7.75l1.953125 0zm8.489624 7.75l-2.078125 0l0 -7.75l2.078125 0l0 7.75zm-2.203125 -9.75q0 -0.46875 0.3125 -0.765625q0.3125 -0.296875 0.84375 -0.296875q0.53125 0 0.84375 0.296875q0.3125 0.296875 0.3125 0.765625q0 0.46875 -0.3125 0.78125q-0.3125 0.296875 -0.84375 0.296875q-0.515625 0 -0.84375 -0.296875q-0.3125 -0.3125 -0.3125 -0.78125zm5.8078003 2.0l0.0625 0.90625q0.828125 -1.046875 2.21875 -1.046875q1.234375 0 1.828125 0.734375q0.609375 0.71875 0.625 2.15625l0 5.0l-2.0625 0l0 -4.953125q0 -0.65625 -0.296875 -0.953125q-0.28125 -0.296875 -0.953125 -0.296875q-0.875 0 -1.3125 0.75l0 5.453125l-2.0625 0l0 -7.75l1.953125 0zm6.005249 3.828125q0 -1.78125 0.84375 -2.875q0.84375 -1.09375 2.28125 -1.09375q1.28125 0 1.984375 0.875l0.09375 -0.734375l1.875 0l0 7.5q0 1.015625 -0.46875 1.765625q-0.46875 0.75 -1.3125 1.140625q-0.828125 0.390625 -1.953125 0.390625q-0.84375 0 -1.65625 -0.34375q-0.8125 -0.328125 -1.21875 -0.875l0.90625 -1.25q0.78125 0.859375 1.875 0.859375q0.828125 0 1.28125 -0.4375q0.46875 -0.4375 0.46875 -1.25l0 -0.421875q-0.71875 0.8125 -1.890625 0.8125q-1.390625 0 -2.25 -1.09375q-0.859375 -1.09375 -0.859375 -2.890625l0 -0.078125zm2.0625 0.140625q0 1.046875 0.421875 1.65625q0.421875 0.59375 1.15625 0.59375q0.953125 0 1.359375 -0.703125l0 -3.265625q-0.421875 -0.703125 -1.34375 -0.703125q-0.75 0 -1.171875 0.609375q-0.421875 0.609375 -0.421875 1.8125z" fill-rule="nonzero"/><path fill="#980000" d="m570.1066 178.44261c21.182251 12.550674 39.5791 29.502762 53.85559 50.131042c27.781311 40.141525 36.140747 87.1281 28.36493 131.26402c7.5620728 -1.1107483 15.687378 -2.6113281 23.040955 -5.2269287c5.8465576 -46.923523 -4.0562744 -96.1402 -33.38098 -138.51183c-18.13501 -26.203491 -42.25763 -46.613922 -68.957275 -61.118073c-0.47027588 7.7465363 -1.5038452 15.882904 -2.9232178 23.461761z" fill-rule="evenodd"/><path stroke="#ffffff" stroke-width="1.0" stroke-miterlimit="8.0" stroke-linecap="butt" d="m570.1066 178.44261c21.182251 12.550674 39.5791 29.502762 53.85559 50.131042c27.781311 40.141525 36.140747 87.1281 28.36493 131.26402c7.5620728 -1.1107483 15.687378 -2.6113281 23.040955 -5.2269287c5.8465576 -46.923523 -4.0562744 -96.1402 -33.38098 -138.51183c-18.13501 -26.203491 -42.25763 -46.613922 -68.957275 -61.118073c-0.47027588 7.7465363 -1.5038452 15.882904 -2.9232178 23.461761z" fill-rule="evenodd"/><path fill="#980000" d="m566.1625 184.38876c-5.184326 30.501282 -17.641785 59.703674 -37.03589 85.791046c23.133362 19.610352 32.663757 51.80133 24.38153 81.280334c30.43982 10.595795 62.02417 12.483856 91.688965 6.9931335c7.3725586 -42.30609 -0.7104492 -87.372345 -27.380066 -125.90759c-13.7052 -19.802856 -31.349915 -36.087677 -51.65454 -48.15692z" fill-rule="evenodd"/><path stroke="#ffffff" stroke-width="1.3333333333333333" stroke-miterlimit="8.0" stroke-linecap="butt" d="m566.1625 184.38876c-5.184326 30.501282 -17.641785 59.703674 -37.03589 85.791046c23.133362 19.610352 32.663757 51.80133 24.38153 81.280334c30.43982 10.595795 62.02417 12.483856 91.688965 6.9931335c7.3725586 -42.30609 -0.7104492 -87.372345 -27.380066 -125.90759c-13.7052 -19.802856 -31.349915 -36.087677 -51.65454 -48.15692z" fill-rule="evenodd"/><path fill="#000000" fill-opacity="0.0" d="m541.14166 261.70602l113.385864 0l0 59.08664l-113.385864 0z" fill-rule="evenodd"/><path fill="#ffffff" d="m583.42096 283.8606q-0.125 1.671875 -1.25 2.640625q-1.109375 0.96875 -2.9375 0.96875q-2.015625 0 -3.171875 -1.34375q-1.140625 -1.359375 -1.140625 -3.703125l0 -0.640625q0 -1.5 0.53125 -2.640625q0.53125 -1.15625 1.515625 -1.765625q0.984375 -0.609375 2.28125 -0.609375q1.8125 0 2.90625 0.96875q1.109375 0.96875 1.28125 2.703125l-2.140625 0q-0.078125 -1.0 -0.5625 -1.453125q-0.484375 -0.453125 -1.484375 -0.453125q-1.0625 0 -1.59375 0.765625q-0.53125 0.765625 -0.546875 2.390625l0 0.78125q0 1.6875 0.5 2.46875q0.515625 0.78125 1.625 0.78125q0.984375 0 1.46875 -0.453125q0.5 -0.453125 0.578125 -1.40625l2.140625 0zm5.6207886 -2.328125q-0.421875 -0.0625 -0.734375 -0.0625q-1.171875 0 -1.546875 0.796875l0 5.0625l-2.0625 0l0 -7.75l1.953125 0l0.0625 0.9375q0.609375 -1.078125 1.71875 -1.078125q0.34375 0 0.640625 0.09375l-0.03125 2.0zm3.1895752 5.796875l-2.078125 0l0 -7.75l2.078125 0l0 7.75zm-2.203125 -9.75q0 -0.46875 0.3125 -0.765625q0.3125 -0.296875 0.84375 -0.296875q0.53125 0 0.84375 0.296875q0.3125 0.296875 0.3125 0.765625q0 0.46875 -0.3125 0.78125q-0.3125 0.296875 -0.84375 0.296875q-0.515625 0 -0.84375 -0.296875q-0.3125 -0.3125 -0.3125 -0.78125zm6.3703003 0.109375l0 1.890625l1.328125 0l0 1.53125l-1.328125 0l0 3.859375q0 0.421875 0.15625 0.609375q0.171875 0.1875 0.640625 0.1875q0.34375 0 0.609375 -0.046875l0 1.5625q-0.609375 0.1875 -1.25 0.1875q-2.171875 0 -2.21875 -2.1875l0 -4.171875l-1.125 0l0 -1.53125l1.125 0l0 -1.890625l2.0625 0zm4.6709595 9.640625l-2.078125 0l0 -7.75l2.078125 0l0 7.75zm-2.203125 -9.75q0 -0.46875 0.3125 -0.765625q0.3125 -0.296875 0.84375 -0.296875q0.53125 0 0.84375 0.296875q0.3125 0.296875 0.3125 0.765625q0 0.46875 -0.3125 0.78125q-0.3125 0.296875 -0.84375 0.296875q-0.515625 0 -0.84375 -0.296875q-0.3125 -0.3125 -0.3125 -0.78125zm7.1202393 8.21875q0.578125 0 0.921875 -0.3125q0.359375 -0.3125 0.375 -0.828125l1.9375 0q0 0.78125 -0.421875 1.4375q-0.421875 0.65625 -1.15625 1.015625q-0.734375 0.359375 -1.625 0.359375q-1.65625 0 -2.625 -1.046875q-0.953125 -1.0625 -0.953125 -2.921875l0 -0.140625q0 -1.78125 0.953125 -2.84375q0.953125 -1.078125 2.609375 -1.078125q1.453125 0 2.328125 0.828125q0.890625 0.828125 0.890625 2.203125l-1.9375 0q-0.015625 -0.59375 -0.375 -0.96875q-0.34375 -0.390625 -0.9375 -0.390625q-0.71875 0 -1.09375 0.53125q-0.359375 0.53125 -0.359375 1.703125l0 0.21875q0 1.203125 0.359375 1.71875q0.359375 0.515625 1.109375 0.515625zm8.90863 1.53125q-0.140625 -0.28125 -0.203125 -0.6875q-0.75 0.828125 -1.953125 0.828125q-1.140625 0 -1.890625 -0.65625q-0.75 -0.65625 -0.75 -1.65625q0 -1.234375 0.90625 -1.890625q0.921875 -0.65625 2.640625 -0.671875l0.953125 0l0 -0.4375q0 -0.53125 -0.28125 -0.859375q-0.265625 -0.328125 -0.859375 -0.328125q-0.515625 0 -0.8125 0.25q-0.296875 0.25 -0.296875 0.6875l-2.078125 0q0 -0.671875 0.40625 -1.234375q0.421875 -0.578125 1.171875 -0.90625q0.765625 -0.328125 1.71875 -0.328125q1.421875 0 2.265625 0.71875q0.84375 0.71875 0.84375 2.03125l0 3.34375q0.015625 1.109375 0.3125 1.671875l0 0.125l-2.09375 0zm-1.703125 -1.4375q0.453125 0 0.828125 -0.203125q0.390625 -0.203125 0.578125 -0.546875l0 -1.328125l-0.765625 0q-1.5625 0 -1.65625 1.0625l0 0.125q0 0.390625 0.265625 0.640625q0.265625 0.25 0.75 0.25zm7.263977 1.4375l-2.078125 0l0 -11.0l2.078125 0l0 11.0z" fill-rule="nonzero"/><path fill="#ffffff" d="m577.79 296.64185l-3.203125 0l0 8.6875l-2.140625 0l0 -8.6875l-3.15625 0l0 -1.734375l8.5 0l0 1.734375zm3.0983887 1.78125q0.828125 -0.984375 2.0625 -0.984375q2.53125 0 2.5625 2.9375l0 4.953125l-2.0625 0l0 -4.90625q0 -0.65625 -0.296875 -0.96875q-0.28125 -0.328125 -0.953125 -0.328125q-0.90625 0 -1.3125 0.703125l0 5.5l-2.0625 0l0 -11.0l2.0625 0l0 4.09375zm8.373047 6.90625l-2.078125 0l0 -7.75l2.078125 0l0 7.75zm-2.203125 -9.75q0 -0.46875 0.3125 -0.765625q0.3125 -0.296875 0.84375 -0.296875q0.53125 0 0.84375 0.296875q0.3125 0.296875 0.3125 0.765625q0 0.46875 -0.3125 0.78125q-0.3125 0.296875 -0.84375 0.296875q-0.515625 0 -0.84375 -0.296875q-0.3125 -0.3125 -0.3125 -0.78125zm5.8078003 2.0l0.0625 0.90625q0.828125 -1.046875 2.21875 -1.046875q1.234375 0 1.828125 0.734375q0.609375 0.71875 0.625 2.15625l0 5.0l-2.0625 0l0 -4.953125q0 -0.65625 -0.296875 -0.953125q-0.28125 -0.296875 -0.953125 -0.296875q-0.875 0 -1.3125 0.75l0 5.453125l-2.0625 0l0 -7.75l1.953125 0zm9.114624 4.640625l-0.75 0.75l0 2.359375l-2.0625 0l0 -11.0l2.0625 0l0 6.09375l0.40625 -0.515625l1.984375 -2.328125l2.484375 0l-2.796875 3.234375l3.03125 4.515625l-2.375 0l-1.984375 -3.109375zm7.2040405 3.109375l-2.078125 0l0 -7.75l2.078125 0l0 7.75zm-2.203125 -9.75q0 -0.46875 0.3125 -0.765625q0.3125 -0.296875 0.84375 -0.296875q0.53125 0 0.84375 0.296875q0.3125 0.296875 0.3125 0.765625q0 0.46875 -0.3125 0.78125q-0.3125 0.296875 -0.84375 0.296875q-0.515625 0 -0.84375 -0.296875q-0.3125 -0.3125 -0.3125 -0.78125zm5.8078003 2.0l0.0625 0.90625q0.828125 -1.046875 2.21875 -1.046875q1.234375 0 1.828125 0.734375q0.609375 0.71875 0.625 2.15625l0 5.0l-2.0625 0l0 -4.953125q0 -0.65625 -0.296875 -0.953125q-0.28125 -0.296875 -0.953125 -0.296875q-0.875 0 -1.3125 0.75l0 5.453125l-2.0625 0l0 -7.75l1.953125 0zm6.005249 3.828125q0 -1.78125 0.84375 -2.875q0.84375 -1.09375 2.28125 -1.09375q1.28125 0 1.984375 0.875l0.09375 -0.734375l1.875 0l0 7.5q0 1.015625 -0.46875 1.765625q-0.46875 0.75 -1.3125 1.140625q-0.828125 0.390625 -1.953125 0.390625q-0.84375 0 -1.65625 -0.34375q-0.8125 -0.328125 -1.21875 -0.875l0.90625 -1.25q0.78125 0.859375 1.875 0.859375q0.828125 0 1.28125 -0.4375q0.46875 -0.4375 0.46875 -1.25l0 -0.421875q-0.71875 0.8125 -1.890625 0.8125q-1.390625 0 -2.25 -1.09375q-0.859375 -1.09375 -0.859375 -2.890625l0 -0.078125zm2.0625 0.140625q0 1.046875 0.421875 1.65625q0.421875 0.59375 1.15625 0.59375q0.953125 0 1.359375 -0.703125l0 -3.265625q-0.421875 -0.703125 -1.34375 -0.703125q-0.75 0 -1.171875 0.609375q-0.421875 0.609375 -0.421875 1.8125z" fill-rule="nonzero"/></g></svg>